<svg width="82" height="82" viewBox="0 0 82 82" fill="none" xmlns="http://www.w3.org/2000/svg">
<path d="M6.83333 13.6428C6.83958 12.7455 7.19857 11.8866 7.83275 11.2518C8.46693 10.617 9.32538 10.2572 10.2227 10.25H71.7773C73.6497 10.25 75.1667 11.7704 75.1667 13.6428V68.3573C75.1604 69.2545 74.8014 70.1134 74.1672 70.7482C73.5331 71.383 72.6746 71.7428 71.7773 71.75H10.2227C9.32344 71.7491 8.46136 71.3912 7.82584 70.7551C7.19031 70.1189 6.83333 69.2565 6.83333 68.3573V13.6428ZM13.6667 17.0833V64.9167H68.3333V17.0833H13.6667ZM41 51.25C43.7185 51.25 46.3256 50.1701 48.2478 48.2478C50.1701 46.3256 51.25 43.7185 51.25 41C51.25 38.2815 50.1701 35.6744 48.2478 33.7522C46.3256 31.8299 43.7185 30.75 41 30.75C38.2815 30.75 35.6744 31.8299 33.7522 33.7522C31.8299 35.6744 30.75 38.2815 30.75 41C30.75 43.7185 31.8299 46.3256 33.7522 48.2478C35.6744 50.1701 38.2815 51.25 41 51.25ZM41 58.0833C36.4692 58.0833 32.124 56.2835 28.9203 53.0797C25.7165 49.876 23.9167 45.5308 23.9167 41C23.9167 36.4692 25.7165 32.124 28.9203 28.9203C32.124 25.7165 36.4692 23.9167 41 23.9167C45.5308 23.9167 49.876 25.7165 53.0797 28.9203C56.2835 32.124 58.0833 36.4692 58.0833 41C58.0833 45.5308 56.2835 49.876 53.0797 53.0797C49.876 56.2835 45.5308 58.0833 41 58.0833ZM58.0833 20.5H64.9167V27.3333H58.0833V20.5Z" fill="#495ECA"/>
</svg>
