<svg width="26" height="27" viewBox="0 0 26 27" fill="none" xmlns="http://www.w3.org/2000/svg">
<path d="M25.75 25.3332C25.75 25.709 25.6007 26.0693 25.3351 26.335C25.0694 26.6006 24.7091 26.7499 24.3333 26.7499H1.66667C1.29094 26.7499 0.930609 26.6006 0.664932 26.335C0.399256 26.0693 0.25 25.709 0.25 25.3332V10.4441C0.249851 10.2282 0.299041 10.0151 0.393814 9.82115C0.488588 9.62719 0.626437 9.45745 0.796834 9.3249L12.1302 0.510397C12.3789 0.316945 12.6849 0.211914 13 0.211914C13.3151 0.211914 13.6211 0.316945 13.8698 0.510397L25.2032 9.3249C25.3736 9.45745 25.5114 9.62719 25.6062 9.82115C25.701 10.0151 25.7501 10.2282 25.75 10.4441V25.3332ZM22.9167 23.9166V11.1354L13 3.42306L3.08333 11.1354V23.9166H22.9167Z" fill="#495ECA"/>
</svg>
