<svg width="26" height="30" viewBox="0 0 26 30" fill="none" xmlns="http://www.w3.org/2000/svg">
<path d="M25.75 3.66659H5.91667C5.16522 3.66659 4.44455 3.9651 3.9132 4.49645C3.38184 5.0278 3.08333 5.74847 3.08333 6.49992C3.08333 7.25137 3.38184 7.97204 3.9132 8.50339C4.44455 9.03474 5.16522 9.33325 5.91667 9.33325H25.75V27.7499C25.75 28.1256 25.6007 28.486 25.3351 28.7517C25.0694 29.0173 24.7091 29.1666 24.3333 29.1666H5.91667C4.41377 29.1666 2.97243 28.5696 1.90973 27.5069C0.847022 26.4442 0.25 25.0028 0.25 23.4999V6.49992C0.25 4.99703 0.847022 3.55569 1.90973 2.49298C2.97243 1.43027 4.41377 0.833252 5.91667 0.833252H24.3333C24.7091 0.833252 25.0694 0.982507 25.3351 1.24818C25.6007 1.51386 25.75 1.8742 25.75 2.24992V3.66659ZM3.08333 23.4999C3.08333 24.2514 3.38184 24.972 3.9132 25.5034C4.44455 26.0347 5.16522 26.3333 5.91667 26.3333H22.9167V12.1666H5.91667C4.92192 12.1682 3.94443 11.9067 3.08333 11.4087V23.4999ZM24.3333 7.91659H5.91667C5.54094 7.91659 5.18061 7.76733 4.91493 7.50165C4.64926 7.23598 4.5 6.87564 4.5 6.49992C4.5 6.1242 4.64926 5.76386 4.91493 5.49818C5.18061 5.23251 5.54094 5.08325 5.91667 5.08325H24.3333V7.91659Z" fill="#495ECA"/>
</svg>
