<svg width="38" height="41" viewBox="0 0 38 41" fill="none" xmlns="http://www.w3.org/2000/svg">
<path d="M6.66669 32.5622H10.5V36.57H33.5V4.50778H10.5V8.51556H6.66669V2.50389C6.66669 1.97242 6.86862 1.46273 7.22807 1.08693C7.58751 0.711123 8.07502 0.5 8.58335 0.5H35.4167C35.925 0.5 36.4125 0.711123 36.772 1.08693C37.1314 1.46273 37.3334 1.97242 37.3334 2.50389V38.5739C37.3334 39.1054 37.1314 39.6151 36.772 39.9909C36.4125 40.3667 35.925 40.5778 35.4167 40.5778H8.58335C8.07502 40.5778 7.58751 40.3667 7.22807 39.9909C6.86862 39.6151 6.66669 39.1054 6.66669 38.5739V32.5622ZM10.5 18.535H23.9167V22.5428H10.5V28.5545L0.916687 20.5389L10.5 12.5233V18.535Z" fill="#495ECA"/>
</svg>
