<svg width="40" height="40" viewBox="0 0 40 40" fill="none" xmlns="http://www.w3.org/2000/svg">
<path d="M20.5702 4.66659C20.136 5.8979 19.915 7.19427 19.9167 8.49992H4.58333V35.3333H31.4167V19.9999C32.7223 20.0016 34.0187 19.7806 35.25 19.3463V37.2499C35.25 37.7583 35.0481 38.2458 34.6886 38.6052C34.3292 38.9647 33.8417 39.1666 33.3333 39.1666H2.66667C2.15833 39.1666 1.67082 38.9647 1.31138 38.6052C0.951934 38.2458 0.75 37.7583 0.75 37.2499V6.58325C0.75 6.07492 0.951934 5.58741 1.31138 5.22796C1.67082 4.86852 2.15833 4.66659 2.66667 4.66659H20.5702ZM31.4167 12.3333C32.4333 12.3333 33.4084 11.9294 34.1272 11.2105C34.8461 10.4916 35.25 9.51658 35.25 8.49992C35.25 7.48326 34.8461 6.50823 34.1272 5.78934C33.4084 5.07045 32.4333 4.66659 31.4167 4.66659C30.4 4.66659 29.425 5.07045 28.7061 5.78934C27.9872 6.50823 27.5833 7.48326 27.5833 8.49992C27.5833 9.51658 27.9872 10.4916 28.7061 11.2105C29.425 11.9294 30.4 12.3333 31.4167 12.3333ZM31.4167 16.1666C29.3833 16.1666 27.4333 15.3588 25.9955 13.9211C24.5577 12.4833 23.75 10.5332 23.75 8.49992C23.75 6.46659 24.5577 4.51655 25.9955 3.07877C27.4333 1.64099 29.3833 0.833252 31.4167 0.833252C33.45 0.833252 35.4 1.64099 36.8378 3.07877C38.2756 4.51655 39.0833 6.46659 39.0833 8.49992C39.0833 10.5332 38.2756 12.4833 36.8378 13.9211C35.4 15.3588 33.45 16.1666 31.4167 16.1666Z" fill="#495ECA"/>
</svg>
