<svg width="40" height="38" viewBox="0 0 40 38" fill="none" xmlns="http://www.w3.org/2000/svg">
<path d="M0.833374 18.9999C0.833374 17.342 1.04421 15.7359 1.43904 14.2006C2.49793 14.2563 3.5516 14.018 4.48355 13.5123C5.41551 13.0065 6.18946 12.2529 6.71985 11.3347C7.25024 10.4165 7.51642 9.36957 7.48895 8.30957C7.46148 7.24958 7.14144 6.21782 6.56421 5.32835C8.88135 3.04861 11.7407 1.3963 14.873 0.5271C15.354 1.47292 16.0874 2.26718 16.992 2.82194C17.8966 3.37671 18.937 3.67035 19.9981 3.67035C21.0593 3.67035 22.0997 3.37671 23.0043 2.82194C23.9088 2.26718 24.6422 1.47292 25.1233 0.5271C28.2555 1.3963 31.1149 3.04861 33.432 5.32835C32.8542 6.21798 32.5336 7.25013 32.506 8.31062C32.4783 9.3711 32.7445 10.4186 33.2752 11.3371C33.8059 12.2557 34.5804 13.0095 35.513 13.5152C36.4455 14.0209 37.4998 14.2588 38.5591 14.2025C38.954 15.7358 39.1648 17.342 39.1648 18.9999C39.1648 20.6579 38.954 22.264 38.5591 23.7993C37.5001 23.7432 36.4462 23.9812 35.5139 24.4868C34.5817 24.9924 33.8074 25.746 33.2768 26.6643C32.7462 27.5825 32.4798 28.6296 32.5072 29.6898C32.5346 30.75 32.8547 31.7819 33.432 32.6715C31.1149 34.9513 28.2555 36.6036 25.1233 37.4728C24.6422 36.5269 23.9088 35.7327 23.0043 35.1779C22.0997 34.6232 21.0593 34.3295 19.9981 34.3295C18.937 34.3295 17.8966 34.6232 16.992 35.1779C16.0874 35.7327 15.354 36.5269 14.873 37.4728C11.7407 36.6036 8.88135 34.9513 6.56421 32.6715C7.14209 31.7819 7.46261 30.7497 7.49028 29.6893C7.51795 28.6288 7.25171 27.5813 6.72101 26.6627C6.19031 25.7442 5.41584 24.9903 4.48329 24.4846C3.55075 23.9789 2.49647 23.7411 1.43712 23.7973C1.04421 22.2659 0.833374 20.6598 0.833374 18.9999ZM10.041 24.7499C11.2485 26.841 11.5935 29.2464 11.122 31.5043C11.904 32.0601 12.7359 32.5412 13.608 32.9418C15.3649 31.3679 17.6412 30.4983 20 30.4999C22.415 30.4999 24.6729 31.4027 26.3921 32.9418C27.2642 32.5412 28.096 32.0601 28.878 31.5043C28.394 29.1965 28.7789 26.7913 29.959 24.7499C31.1371 22.7075 33.0277 21.1718 35.2682 20.4374C35.3568 19.4811 35.3568 18.5187 35.2682 17.5624C33.0269 16.8285 31.1356 15.2928 29.9571 13.2499C28.777 11.2085 28.392 8.80333 28.8761 6.4956C28.0943 5.93962 27.262 5.45834 26.3902 5.0581C24.6338 6.63155 22.3582 7.5011 20 7.49993C17.6412 7.50157 15.3649 6.632 13.608 5.0581C12.7361 5.45835 11.9038 5.93963 11.122 6.4956C11.6061 8.80333 11.2212 11.2085 10.041 13.2499C8.863 15.2924 6.97242 16.8281 4.73187 17.5624C4.64323 18.5187 4.64323 19.4811 4.73187 20.4374C6.97314 21.1714 8.86445 22.7071 10.043 24.7499H10.041ZM20 24.7499C18.475 24.7499 17.0125 24.1441 15.9342 23.0658C14.8558 21.9875 14.25 20.5249 14.25 18.9999C14.25 17.4749 14.8558 16.0124 15.9342 14.9341C17.0125 13.8557 18.475 13.2499 20 13.2499C21.525 13.2499 22.9876 13.8557 24.0659 14.9341C25.1442 16.0124 25.75 17.4749 25.75 18.9999C25.75 20.5249 25.1442 21.9875 24.0659 23.0658C22.9876 24.1441 21.525 24.7499 20 24.7499ZM20 20.9166C20.5084 20.9166 20.9959 20.7147 21.3553 20.3552C21.7148 19.9958 21.9167 19.5083 21.9167 18.9999C21.9167 18.4916 21.7148 18.0041 21.3553 17.6446C20.9959 17.2852 20.5084 17.0833 20 17.0833C19.4917 17.0833 19.0042 17.2852 18.6448 17.6446C18.2853 18.0041 18.0834 18.4916 18.0834 18.9999C18.0834 19.5083 18.2853 19.9958 18.6448 20.3552C19.0042 20.7147 19.4917 20.9166 20 20.9166Z" fill="#495ECA"/>
</svg>
