<svg width="40" height="38" viewBox="0 0 40 38" fill="none" xmlns="http://www.w3.org/2000/svg">
<path d="M39.1667 16.0833V35.25C39.1667 35.7583 38.9647 36.2458 38.6053 36.6053C38.2459 36.9647 37.7583 37.1667 37.25 37.1667H35.3333C34.825 37.1667 34.3375 36.9647 33.9781 36.6053C33.6186 36.2458 33.4167 35.7583 33.4167 35.25V33.3333H6.58334V35.25C6.58334 35.7583 6.38141 36.2458 6.02196 36.6053C5.66252 36.9647 5.17501 37.1667 4.66668 37.1667H2.75001C2.24168 37.1667 1.75417 36.9647 1.39472 36.6053C1.03528 36.2458 0.833344 35.7583 0.833344 35.25V16.0833L5.52343 6.70317C5.84185 6.06594 6.33153 5.53005 6.93754 5.15561C7.54355 4.78117 8.24191 4.583 8.95426 4.58333H14.25V0.75H25.75V4.58333H31.0477C31.7597 4.58336 32.4577 4.7817 33.0633 5.15611C33.6689 5.53053 34.1583 6.06623 34.4766 6.70317L39.1667 16.0833ZM35.3333 19.9167H4.66668V29.5H35.3333V19.9167ZM5.11901 16.0833H34.881L31.0477 8.41667H8.95234L5.11901 16.0833ZM9.45834 27.5833C8.69585 27.5833 7.96458 27.2804 7.42541 26.7413C6.88624 26.2021 6.58334 25.4708 6.58334 24.7083C6.58334 23.9458 6.88624 23.2146 7.42541 22.6754C7.96458 22.1362 8.69585 21.8333 9.45834 21.8333C10.2208 21.8333 10.9521 22.1362 11.4913 22.6754C12.0304 23.2146 12.3333 23.9458 12.3333 24.7083C12.3333 25.4708 12.0304 26.2021 11.4913 26.7413C10.9521 27.2804 10.2208 27.5833 9.45834 27.5833ZM30.5417 27.5833C29.7792 27.5833 29.0479 27.2804 28.5087 26.7413C27.9696 26.2021 27.6667 25.4708 27.6667 24.7083C27.6667 23.9458 27.9696 23.2146 28.5087 22.6754C29.0479 22.1362 29.7792 21.8333 30.5417 21.8333C31.3042 21.8333 32.0354 22.1362 32.5746 22.6754C33.1138 23.2146 33.4167 23.9458 33.4167 24.7083C33.4167 25.4708 33.1138 26.2021 32.5746 26.7413C32.0354 27.2804 31.3042 27.5833 30.5417 27.5833Z" fill="#495ECA"/>
</svg>
